<svg xmlns="http://www.w3.org/2000/svg" viewBox="0 0 24 24" width="24" height="24" fill="none" stroke="white" stroke-width="0.5" stroke-linecap="round" stroke-linejoin="round">
  <path d="M12 2 L13.5 3.5 L12 5 L10.5 3.5 Z" />
  
  <path d="M11 5 L13 5 M11 6 L13 6 M11 7 L13 7 M11 8 L13 8 M11 9 L13 9 M11 10 L13 10 M11 11 L13 11" />
  <path d="M11 5 L11 11 M13 5 L13 11" />

  <path d="M9 11 L15 11 M9 12 L15 12" />
  <path d="M9 11 L8 12 L9 13 L9 12" />
  <path d="M9 11 L8 11.5 L8.5 12.5 L9 12" />
  <path d="M15 11 L16 12 L15 13 L15 12" />
  <path d="M15 11 L16 11.5 L15.5 12.5 L15 12" />
  <path d="M12 11 L12.75 11.5 L12 12 L11.25 11.5 Z" />

  <path d="M11 12 L11 20 L12 21.5 L13 20 L13 12" />
  <path d="M12 12 L12 21.5" />
</svg>
